<svg aria-hidden="true" style="position: absolute; width: 0; height: 0; overflow: hidden;" version="1.1" xmlns="http://www.w3.org/2000/svg" xmlns:xlink="http://www.w3.org/1999/xlink">
<defs>
<symbol id="icon-arrow" viewBox="0 0 13 32">
<path d="M0.553 14.928l8-13.857c0.374-0.649 1.064-1.079 1.855-1.079 1.178 0 2.133 0.955 2.133 2.133 0 0.398-0.109 0.77-0.298 1.089l0.005-0.010-8 13.857c-0.377 0.635-1.060 1.054-1.84 1.054-1.178 0-2.133-0.955-2.133-2.133 0-0.388 0.103-0.751 0.284-1.065l-0.005 0.010z"></path>
<path d="M0.819 17.072l8 13.857c0.377 0.635 1.060 1.054 1.84 1.054 1.178 0 2.133-0.955 2.133-2.133 0-0.388-0.103-0.751-0.284-1.065l0.005 0.010-8-13.857c-0.377-0.635-1.060-1.054-1.84-1.054-1.178 0-2.133 0.955-2.133 2.133 0 0.388 0.103 0.751 0.284 1.065l-0.005-0.010z"></path>
</symbol>
</defs>
</svg>
